<svg width="22" height="16" viewBox="0 0 22 16" fill="none" xmlns="http://www.w3.org/2000/svg">
<g clip-path="url(#clip0_1489_2336)">
<path d="M1.99853 15.9882C1.44893 15.9882 0.978447 15.7926 0.587068 15.4012C0.195689 15.0097 0 14.5393 0 13.9897V1.99853C0 1.44893 0.195689 0.978447 0.587068 0.587068C0.978447 0.195689 1.44893 0 1.99853 0H7.99411L9.99264 1.99853H17.9868C18.5364 1.99853 19.0068 2.19421 19.3982 2.5856C19.7896 2.97698 19.9853 3.44746 19.9853 3.99706H9.16825L7.16972 1.99853H1.99853V13.9897L4.39676 5.99559H21.4842L18.9111 14.5643C18.7779 14.9973 18.5322 15.3429 18.1741 15.601C17.8161 15.8591 17.4205 15.9882 16.9875 15.9882H1.99853ZM4.09698 13.9897H16.9875L18.7862 7.99411H5.89566L4.09698 13.9897Z" fill="#06B6D4"/>
</g>
<defs>
<clipPath id="clip0_1489_2336">
<rect width="21.4842" height="15.9887" fill="white"/>
</clipPath>
</defs>
</svg>
